<svg xmlns="http://www.w3.org/2000/svg" width="22" height="23" viewBox="0 0 22 23" fill="none" class="icon-bg--icon"><path d="M6.417 15.625c-2.532 0-4.584-1.847-4.584-4.125H11c0 2.278-2.052 4.125-4.583 4.125Zm8.708.458c0 2.531-1.847 4.583-4.125 4.583v-9.167c2.278 0 4.125 2.052 4.125 4.584Zm-8.25-9.166C6.875 9.448 8.722 11.5 11 11.5V2.333c-2.278 0-4.125 2.052-4.125 4.584Z" stroke="#fff" stroke-width="2" stroke-linecap="round" stroke-linejoin="round"/><path d="M15.583 7.375C13.052 7.375 11 9.222 11 11.5h9.167c0-2.278-2.052-4.125-4.584-4.125Z" stroke="#fff" stroke-width="2" stroke-linecap="round" stroke-linejoin="round"/></svg>