<svg xmlns="http://www.w3.org/2000/svg" width="10" height="10" viewBox="0 0 9 9" fill="none" class="link-icon--right"><path fill-rule="evenodd" clip-rule="evenodd" d="M7.506 3.406a.25.25 0 0 0-.354 0l-2.74 2.74-2.74-2.74a.25.25 0 0 0-.353.354l2.799 2.799a.417.417 0 0 0 .59 0l2.798-2.8a.25.25 0 0 0 0-.353Z" fill="currentColor"/><path d="m7.152 3.406.354.354-.354-.354Zm.354 0-.354.354.354-.354Zm-3.094 2.74L4.06 6.5a.5.5 0 0 0 .707 0l-.354-.354Zm-2.74-2.74.354-.353-.353.353Zm-.353 0-.354-.353.354.353Zm0 .354.354-.354-.354.354Zm2.799 2.799-.354.353.354-.353Zm.59 0-.354-.354.353.354Zm2.798-2.8-.354-.353.354.354Zm0 0a.25.25 0 0 1-.354 0l.707-.706a.75.75 0 0 0-1.06 0l.707.707ZM4.766 6.5l2.74-2.74-.707-.706-2.74 2.74.707.707ZM1.319 3.76l2.74 2.74.707-.706-2.74-2.74-.707.707Zm.354 0a.25.25 0 0 1-.354 0l.707-.706a.75.75 0 0 0-1.06 0l.707.707Zm0-.353a.25.25 0 0 1 0 .354l-.708-.707a.75.75 0 0 0 0 1.06l.708-.707ZM4.47 6.205 1.673 3.406l-.708.707 2.8 2.8.706-.708Zm-.117 0a.083.083 0 0 1 .117 0l-.707.707a.917.917 0 0 0 1.297 0l-.707-.707Zm2.798-2.799L4.354 6.205l.707.707 2.798-2.799-.707-.707Zm0 .354a.25.25 0 0 1 0-.354l.707.707a.75.75 0 0 0 0-1.06l-.707.707Z" fill="currentColor"/></svg>