<svg xmlns="http://www.w3.org/2000/svg" width="20" height="20" viewBox="0 0 20 20" fill="none" class="right-entry-icon"><path fill-rule="evenodd" clip-rule="evenodd" d="M10 1a9 9 0 1 0 0 18 9 9 0 0 0 0-18Zm0 1.636c4.061 0 7.364 3.304 7.364 7.364 0 4.06-3.303 7.363-7.363 7.363-4.061 0-7.364-3.303-7.364-7.363 0-4.06 3.303-7.364 7.364-7.364Z" fill="currentColor"/><path d="M13.138 8.056v-.003h-2.367a7.108 7.108 0 0 0-.006-1.214l.002-.042v-.002a.795.795 0 0 0-1.59 0v.002a.76.76 0 0 0 .017.159l-.011.001a5.572 5.572 0 0 1-.005 1.096H6.743v.003A.795.795 0 0 0 6 8.848v.003c0 .439.337.791.775.791.034 0 .07.002.124.001l1.861-.004a5.456 5.456 0 0 1-2.329 2.584l-.033.02H6.4a.794.794 0 0 0-.373.673v.002a.795.795 0 0 0 1.251.65 7.047 7.047 0 0 0 3.179-3.927h2.555l.102-.002c.478-.01.79-.347.79-.786v-.002a.792.792 0 0 0-.765-.795Z" fill="currentColor"/><path d="m13.773 12.539-.006-.008a.806.806 0 0 0-.096-.137 7.055 7.055 0 0 0-1.904-1.84v.001a.795.795 0 0 0-1.257.645v.003c0 .3.167.562.413.697.639.421 1.16.905 1.571 1.55l.043.054a.795.795 0 0 0 1.33-.586v-.002a.81.81 0 0 0-.094-.377Z" fill="currentColor"/></svg>