<svg xmlns="http://www.w3.org/2000/svg" width="18" height="18" viewBox="0 0 18 18" fill="none" class="zhuzhan-icon"><path fill-rule="evenodd" clip-rule="evenodd" d="M3.733 2.67a.982.982 0 1 1 1.363-1.412l2.121 2.046c.06.058.112.122.154.19h3.208a.99.99 0 0 1 .153-.19l2.122-2.046a.982.982 0 0 1 1.363 1.413l-.853.823H14a4 4 0 0 1 4 4V13a4 4 0 0 1-4 4H4a4 4 0 0 1-4-4V7.494a4 4 0 0 1 4-4h.586l-.853-.823ZM4 5.424a2 2 0 0 0-2 2v5.647a2 2 0 0 0 2 2h10a2 2 0 0 0 2-2V7.423a2 2 0 0 0-2-2H4Zm1 3.894a1 1 0 0 1 2 0v.894a1 1 0 1 1-2 0v-.894Zm7-1a1 1 0 0 0-1 1v.894a1 1 0 1 0 2 0v-.894a1 1 0 0 0-1-1Z" fill="currentColor"/></svg>