<svg xmlns="http://www.w3.org/2000/svg" viewBox="0 0 36 36" width="36" height="36" class="no-interest-icon" fill="currentColor"><path d="M3 18C3 9.716 9.716 3 18 3c8.284 0 15 6.716 15 15 0 8.284-6.716 15-15 15-8.284 0-15-6.716-15-15zm9.797-5.306a1.125 1.125 0 1 0-1.594 1.589l2.208 2.212-2.208 2.212a1.125 1.125 0 1 0 1.594 1.589l2.471-2.477c.73-.732.73-1.916 0-2.648l-2.471-2.477zm11.997-.002a1.125 1.125 0 0 0-1.59.002l-2.472 2.477a1.875 1.875 0 0 0 0 2.648l2.471 2.477a1.125 1.125 0 0 0 1.594-1.589l-2.208-2.212 2.208-2.212a1.125 1.125 0 0 0-.003-1.591zm-8.893 11.993c.943-1.26 1.822-1.428 2.099-1.428.277 0 1.156.169 2.099 1.428a1.125 1.125 0 0 0 1.802-1.347c-1.307-1.747-2.819-2.33-3.901-2.33-1.082 0-2.594.583-3.901 2.33a1.125 1.125 0 1 0 1.802 1.347z"/></svg>