<svg xmlns="http://www.w3.org/2000/svg" viewBox="0 0 18 18" width="18" height="18" fill="currentColor" class="icon-view"><path d="M8.905 4.219c-3.597 0-5.986 2.792-6.99 4.268a.896.896 0 0 0 0 1.026c1.004 1.476 3.393 4.268 6.99 4.268 3.57 0 6.054-2.749 7.13-4.24a.909.909 0 0 0 0-1.083c-1.076-1.49-3.56-4.24-7.13-4.24zM.982 7.857C2.02 6.332 4.704 3.094 8.905 3.094c4.157 0 6.936 3.173 8.045 4.71.52.72.52 1.672 0 2.393-1.11 1.536-3.888 4.71-8.045 4.71-4.201 0-6.885-3.239-7.923-4.764a2.02 2.02 0 0 1 0-2.286z"/><path d="M9 6.844a2.156 2.156 0 1 0 0 4.312 2.156 2.156 0 0 0 0-4.312zM5.719 9a3.281 3.281 0 1 1 6.562 0A3.281 3.281 0 0 1 5.72 9z"/></svg>