<svg xmlns="http://www.w3.org/2000/svg" width="20" height="21" viewBox="0 0 20 21" fill="none" class="right-entry-icon"><path clip-rule="evenodd" d="m11.05 3.168 1.741 3.528c.163.33.48.56.844.613l3.894.566a1.12 1.12 0 0 1 .621 1.911l-2.817 2.747a1.12 1.12 0 0 0-.323.993l.666 3.877a1.12 1.12 0 0 1-1.626 1.181l-3.484-1.83a1.12 1.12 0 0 0-1.042 0l-3.483 1.83a1.12 1.12 0 0 1-1.626-1.18l.664-3.878a1.119 1.119 0 0 0-.321-.993L1.939 9.786a1.121 1.121 0 0 1 .622-1.911l3.894-.566a1.12 1.12 0 0 0 .843-.613L9.04 3.168a1.121 1.121 0 0 1 2.01 0Z" stroke="currentColor" stroke-width="1.6" stroke-linecap="round" stroke-linejoin="round"/><path d="M11.603 11.874a1.618 1.618 0 0 1-3.12-.017" stroke="currentColor" stroke-width="1.6" stroke-linecap="round" stroke-linejoin="round"/></svg>