<svg xmlns="http://www.w3.org/2000/svg" class="icon side-icon" viewBox="0 0 1024 1024" width="200" height="200"><path d="m772.454 229.274 2.048 6.45 87.245 283.137c8.858 33.126-10.24 66.56-41.984 78.438l-6.553 2.048-118.17 31.744a32.768 32.768 0 0 1-8.192 1.075l-4.096-.204-124.672-14.644-193.382 51.815 36.659 136.704a49.152 49.152 0 0 1-93.184 30.873l-1.792-5.427L155.29 267.264a49.152 49.152 0 0 1 93.184-30.874l1.792 5.428 4.096 15.36L443.29 206.54a32.768 32.768 0 0 1 8.14-1.075l4.096.204 124.519 14.592 112.179-30.054c33.434-8.96 68.198 7.782 80.23 39.014z"/></svg>