<svg xmlns="http://www.w3.org/2000/svg" width="16" height="16" viewBox="0 0 16 16" fill="none" class="download-client-trigger__icon"><path d="M7.232 8.659V1.758C7.232 1.339 7.576 1 8 1c.425 0 .769.34.769.758v6.913l1.217-1.2a.776.776 0 0 1 1.086 0c.3.295.3.775 0 1.071L8.55 11.031a.776.776 0 0 1-1.087 0L4.94 8.542a.75.75 0 0 1 0-1.072.776.776 0 0 1 1.087 0l1.205 1.19Z" fill="currentColor"/><path d="M3.48 4.3c-1.073 0-1.943.858-1.943 1.917v5.35c0 1.059.87 1.917 1.943 1.917h9.04c1.073 0 1.943-.858 1.943-1.917v-5.35c0-1.06-.87-1.918-1.943-1.918h-.904a.763.763 0 0 1-.768-.758c0-.418.343-.758.768-.758h.904c1.922 0 3.48 1.538 3.48 3.434v5.35C16 13.463 14.442 15 12.52 15H3.48C1.558 15 0 13.463 0 11.567v-5.35C0 4.32 1.558 2.783 3.48 2.783h.904c.425 0 .769.34.769.758a.763.763 0 0 1-.769.758H3.48Z" fill="currentColor"/></svg>