<svg xmlns="http://www.w3.org/2000/svg" viewBox="0 0 24 24" width="24" height="24" fill="currentColor"><path d="M3.75 10.5a8.25 8.25 0 1 1 16.5 0 .75.75 0 0 1-1.5 0 6.75 6.75 0 1 0-13.5 0 .75.75 0 0 1-1.5 0zm16.034 5.774a.75.75 0 0 1 .41.978c-.703 1.72-2.246 2.837-3.657 3.512-1.406.673-2.842.986-3.537.986a.75.75 0 0 1 0-1.5c.41 0 1.622-.232 2.89-.839 1.262-.604 2.416-1.504 2.916-2.726a.75.75 0 0 1 .978-.41z"/><path d="M10.25 21c0-.621.504-1.125 1.125-1.125h1.25a1.125 1.125 0 0 1 0 2.25h-1.25A1.125 1.125 0 0 1 10.25 21zM2 12.75A2.75 2.75 0 0 1 4.75 10h.75a2 2 0 0 1 2 2v3.5a2 2 0 0 1-2 2h-.75A2.75 2.75 0 0 1 2 14.75v-2zm2.75-1.25c-.69 0-1.25.56-1.25 1.25v2c0 .69.56 1.25 1.25 1.25h.75a.5.5 0 0 0 .5-.5V12a.5.5 0 0 0-.5-.5h-.75zm11.75.5a2 2 0 0 1 2-2h.75A2.75 2.75 0 0 1 22 12.75v2a2.75 2.75 0 0 1-2.75 2.75h-.75a2 2 0 0 1-2-2V12zm2-.5a.5.5 0 0 0-.5.5v3.5a.5.5 0 0 0 .5.5h.75c.69 0 1.25-.56 1.25-1.25v-2c0-.69-.56-1.25-1.25-1.25h-.75z"/></svg>