<svg xmlns="http://www.w3.org/2000/svg" width="22" height="22" viewBox="0 0 22 22" fill="none" class="icon-bg--icon"><path fill-rule="evenodd" clip-rule="evenodd" d="m4.89 17.272.003.002a8.562 8.562 0 0 0 6.07 2.515c2.287 0 4.248-.735 5.648-2.178l.002-.002c1.387-1.475 2.17-3.427 2.13-5.427.042-.799-.051-2.819-1.334-5.427v-.001c-.2-.399-.593-.688-1.07-.784a1.409 1.409 0 0 0-1.278.387c-.152.13-.281.26-.396.375l-.001.001-.031.031c-.422-3.408-2.025-5.027-3.468-5.76a.669.669 0 0 0-.061-.053.325.325 0 0 0-.135-.062c-.741-.28-1.559.123-1.845.887v.002c-.618 1.688-1.771 2.845-2.958 3.989-1.648 1.564-3.407 3.27-3.364 6.326-.043 1.962.743 3.79 2.089 5.179Zm-1.84-4.207a6.746 6.746 0 0 1-.048-.971C2.959 9.13 4.653 7.478 6.305 5.912c1.185-1.144 2.37-2.33 3.006-4.065.254-.678.974-1.017 1.61-.763.041 0 .084.043.126.085.88.44 1.838 1.227 2.528 2.604-.69-1.377-1.648-2.164-2.528-2.604-.042-.042-.085-.085-.127-.085-.635-.254-1.355.085-1.609.763-.635 1.736-1.82 2.921-3.006 4.065-1.652 1.566-3.346 3.218-3.303 6.182-.008.328.009.652.048.97Zm11.427-5.883c.106-.085.212-.19.328-.307.117-.117.244-.244.392-.37a1.21 1.21 0 0 1 1.1-.34c.424.085.763.34.932.678-.169-.339-.508-.593-.931-.677a1.21 1.21 0 0 0-1.101.338c-.148.127-.275.254-.392.37l-.143.143a2.69 2.69 0 0 1-.185.165Zm-1.78-.823c.146.796.186 1.62.17 2.39a12.118 12.118 0 0 0-.17-2.39Zm4.039 4.306c.075.483.112.974.112 1.471v.043c0 1.524-.55 3.048-1.609 4.15-1.186 1.1-2.71 1.693-4.319 1.608 1.61.085 3.133-.508 4.32-1.609 1.058-1.1 1.608-2.625 1.608-4.15v-.042c0-.497-.037-.988-.112-1.47Zm-5.805 7.073c1.55.081 3.02-.488 4.168-1.552 1.016-1.06 1.55-2.531 1.55-4.008v-.042a8.95 8.95 0 0 0-.754-3.641c-.651.622-1.11.996-1.477 1.192-.206.11-.391.17-.572.18a1.156 1.156 0 0 1-.499-.085c-.426-.16-.68-.58-.68-1.033v-.004c.022-1.048-.062-2.19-.372-3.21-.285-.941-.758-1.767-1.505-2.328-.824 1.742-2.065 2.979-3.203 4.076l-.079.077c-1.536 1.494-2.695 2.62-2.655 4.772v.004c0 1.388.53 2.692 1.508 3.67l.003.002a6.333 6.333 0 0 0 4.556 1.93h.01Z" fill="#fff"/></svg>