<svg xmlns="http://www.w3.org/2000/svg" width="20" height="21" viewBox="0 0 20 21" fill="none" class="right-entry-icon"><mask id="a" mask-type="alpha" maskUnits="userSpaceOnUse" x="2" y="1" width="16" height="20"><path fill-rule="evenodd" clip-rule="evenodd" d="M2.5 1.743h15v18.333h-15V1.743Z" fill="currentColor"/></mask><g mask="url(#a)"><path fill-rule="evenodd" clip-rule="evenodd" d="M10 1.743c-.07 0-.14 0-.212.002-3.934.11-7.204 3.404-7.286 7.338a7.478 7.478 0 0 0 2.868 6.05.83.83 0 0 1 .303.472l.631 2.842a2.082 2.082 0 0 0 2.032 1.63h3.326c.976 0 1.822-.678 2.034-1.633l.632-2.842a.825.825 0 0 1 .3-.467A7.478 7.478 0 0 0 17.5 9.243a7.5 7.5 0 0 0-7.5-7.5Zm0 1.666a5.84 5.84 0 0 1 5.834 5.834 5.798 5.798 0 0 1-2.236 4.582c-.455.358-.774.86-.897 1.415l-.632 2.843a.413.413 0 0 1-.407.326H8.336a.411.411 0 0 1-.404-.324L7.3 15.243a2.509 2.509 0 0 0-.899-1.42A5.786 5.786 0 0 1 4.17 9.119c.063-3.063 2.605-5.622 5.665-5.706.055-.002.111-.003.166-.003Z" fill="currentColor"/><path d="M10 6.813 8.813 9.187h2.374L10 11.561" stroke="currentColor" stroke-width="1.6" stroke-linecap="round" stroke-linejoin="round"/></g><path d="M6.667 15.91h6.666" stroke="currentColor" stroke-width="1.7"/></svg>