<svg xmlns="http://www.w3.org/2000/svg" class="icon side-icon" viewBox="0 0 1024 1024" width="200" height="200"><path d="M810.65 153.6c33.024 0 59.75 26.726 59.75 59.75v597.3c0 33.024-26.726 59.75-59.75 59.75h-597.3a59.75 59.75 0 0 1-59.75-59.75v-597.3c0-33.024 26.726-59.75 59.75-59.75zm-332.8 460.8h-136.5a34.15 34.15 0 0 0 0 68.25h136.5a34.15 34.15 0 1 0 0-68.25zm204.8-136.602h-341.3a34.15 34.15 0 0 0 0 68.25h341.3a34.15 34.15 0 0 0 0-68.25zm0-136.396h-341.3a34.15 34.15 0 0 0 0 68.25h341.3a34.15 34.15 0 1 0 0-68.25z"/></svg>