<svg xmlns="http://www.w3.org/2000/svg" class="icon" viewBox="0 0 1901 1024" width="200" height="200"><path d="M154.917 184.759h1609.142v707.364H154.917z" fill="#FFF"/><path class="level-bg" d="M1779.566 93.038c22.674 0 45.421 20.772 44.324 43.3l-.877 6.144V889.93c0 22.455-15.36 44.91-41.472 48.86l-8.12.585H144.604a48.86 48.86 0 0 1-49.005-41.326l-.585-8.119V228.937c0-22.455 15.36-44.91 41.398-48.786l8.192-.585H1166.41v-37.084c0-22.455 15.36-44.91 41.399-48.786l8.119-.658h563.566zm-92.892 105.033h-383.927c-16.457 0-32.914 14.628-36.425 30.94l-.658 6.143v574.464c0 16.457 14.629 32.915 30.94 36.425l6.143.659h384c16.53 0 32.988-14.629 36.499-30.94l.658-6.144V494.592c0-16.53-14.629-32.914-31.013-36.425l-6.144-.658h-297.179v-135.9h297.18c16.53 0 32.987-14.628 36.498-30.94l.658-6.143v-49.372c0-18.578-18.578-37.083-37.157-37.083zm-953.563 86.528H683.52c-18.578 0-37.157 18.505-37.157 37.01v302.738c0 16.75 0 31.818 6.218 37.01l173.348 172.91c7.9 7.9 23.26 10.752 33.426 11.85l9.948.585 8.558-.44c10.093-.95 26.55-3.656 34.816-11.995l185.782-172.91c4.974-4.9 5.998-13.823 6.144-23.478V327.68c0-18.505-18.505-37.01-37.083-37.01h-49.518c-18.651 0-37.156 18.505-37.156 37.083v277.943L875.52 710.656l-105.326-104.96V321.609c0-18.505-18.505-37.01-37.083-37.01zm-445.952 0H237.64c-16.53 0-33.06 14.628-36.571 30.866l-.585 6.144v488.01c0 16.53 14.628 32.914 30.939 36.424l6.217.659h297.253c16.53 0 32.987-14.629 36.498-30.94l.658-6.144v-49.371c0-16.604-14.628-32.988-31.012-36.425l-6.144-.659H324.242V321.61c0-18.505-18.578-37.01-37.156-37.01zm1312.914 296.448v142.116h-210.505V581.047h210.505z" fill="red"/></svg>