<svg xmlns="http://www.w3.org/2000/svg" width="20" height="20" viewBox="0 0 20 20" fill="none" class="right-entry-icon"><path d="M15.435 17.772H4.567A3.571 3.571 0 0 1 1 14.205V5.767C1 3.801 2.6 2.2 4.567 2.2h10.866C17.399 2.2 19 3.8 19 5.767v8.438a3.57 3.57 0 0 1-3.565 3.567ZM4.567 4c-.974 0-1.766.792-1.766 1.766v8.438c0 .973.792 1.766 1.766 1.766h10.866c.974 0 1.766-.793 1.766-1.766V5.767c0-.974-.792-1.766-1.766-1.766H4.567Z" fill="currentColor"/><path d="M10 11.2c-.488 0-.978-.133-1.403-.398l-.056-.038-4.208-3.107A.778.778 0 0 1 4.19 6.51a.918.918 0 0 1 1.23-.134L9.594 9.46a.826.826 0 0 0 .813 0l4.174-3.083a.918.918 0 0 1 1.23.134.78.78 0 0 1-.143 1.147L11.4 10.802a2.655 2.655 0 0 1-1.4.398Z" fill="currentColor"/></svg>