<svg xmlns="http://www.w3.org/2000/svg" class="icon side-icon" viewBox="0 0 1024 1024" width="200" height="200"><path d="M783.36 221.85a102.4 102.4 0 0 1 102.093 94.77l.307 7.68v409.6a102.4 102.4 0 0 1-94.72 102.094l-7.68.256H237.21a102.4 102.4 0 0 1-102.093-94.72l-.307-7.68v-409.6a102.4 102.4 0 0 1 94.77-102.042l7.68-.307h546.1zm-155.597 81.408a34.15 34.15 0 0 0-50.79 23.603l-54.17 203.315a128 128 0 1 0-108.288 220.826l6.759 1.024A128 128 0 0 0 562.79 647.168l71.783-253.798 47.462 35.481 3.277 2.202a34.15 34.15 0 0 0 37.58-56.832l-91.852-68.762z"/></svg>