<svg xmlns="http://www.w3.org/2000/svg" viewBox="0 0 20 20" width="20" height="20" fill="currentColor" class="bili-watch-later__icon"><path d="M10 3.125a6.875 6.875 0 1 0 4.86 11.737.625.625 0 0 1 .884.884 8.125 8.125 0 1 1 2.331-4.844.625.625 0 1 1-1.242-.138A6.875 6.875 0 0 0 10 3.124z"/><path d="M15.391 9.141a.625.625 0 0 1 .884 0l1.225 1.225 1.225-1.225a.625.625 0 1 1 .884.884l-1.52 1.52a.833.833 0 0 1-1.178 0l-1.52-1.52a.625.625 0 0 1 0-.884zm-2.891.137a.833.833 0 0 1 0 1.443l-3.126 1.805a.833.833 0 0 1-1.25-.722V8.195a.833.833 0 0 1 1.25-.721l3.125 1.804z"/></svg>