<svg xmlns="http://www.w3.org/2000/svg" width="17" height="17" viewBox="0 0 17 17" fill="none"><path fill-rule="evenodd" clip-rule="evenodd" d="M16.345 15.2c.293.292.13.572-.152.863-.043.065-.097.119-.14.162-.282.248-.607.399-.868.14l-3.5-3.483a6.938 6.938 0 0 1-4.238 1.445C3.621 14.327.5 11.23.5 7.413.5 3.606 3.61.5 7.447.5c3.826 0 6.947 3.095 6.947 6.913a6.908 6.908 0 0 1-1.528 4.325l3.48 3.462ZM2.136 7.403c0 2.912 2.385 5.274 5.3 5.274 2.916 0 5.3-2.362 5.3-5.274s-2.384-5.274-5.3-5.274c-2.926 0-5.3 2.372-5.3 5.274Z" fill="currentColor"/></svg>