<svg xmlns="http://www.w3.org/2000/svg" viewBox="0 0 20 20" style="enable-background:new 0 0 20 20" xml:space="preserve" class="side-icon"><path class="st1" d="M16 3.7h-2.7c-1.6 0-2.5 1-3 1.8-.1.2-.5.2-.6 0-.4-.7-1.3-1.8-3-1.8H4c-.7 0-1.3.6-1.3 1.3v8.5c0 .7.6 1.3 1.3 1.3h2.7c1.6 0 2.5 1.1 3 1.8.1.2.5.2.6 0 .4-.7 1.3-1.8 3-1.8H16c.7 0 1.3-.6 1.3-1.3V4.9c0-.7-.5-1.2-1.3-1.2zm-6.8 6.8-1.1 2-1.1-2-2-1.1 2-1.1 1.1-2 1.1 2 2 1.1-2 1.1zm4.2 1.5-.6 1.1-.7-1.1-1.1-.6 1.1-.6.6-1.1.6 1.1 1.1.6-1 .6z"/></svg>