<svg xmlns="http://www.w3.org/2000/svg" width="32" height="32" viewBox="0 0 32 32" fill="none"><path fill-rule="evenodd" clip-rule="evenodd" d="M3.04 16C3.04 8.842 8.842 3.04 16 3.04c7.158 0 12.96 5.802 12.96 12.96 0 7.158-5.802 12.96-12.96 12.96-7.158 0-12.96-5.802-12.96-12.96Zm24.32 0c0-6.274-5.086-11.36-11.36-11.36C9.726 4.64 4.64 9.726 4.64 16c0 6.274 5.086 11.36 11.36 11.36 6.274 0 11.36-5.086 11.36-11.36Z" fill="#FB7199"/><path fill-rule="evenodd" clip-rule="evenodd" d="M8 16a8 8 0 1 1 16 0 8 8 0 0 1-16 0Zm15.36 0a7.36 7.36 0 1 0-14.72 0 7.36 7.36 0 0 0 14.72 0Z" fill="#FB7199"/><path d="m15.167 16.433-1.592-1.913a.8.8 0 0 0-1.23 1.023l.913 1.097c.226.272 2.191.132 1.909-.207Zm1.5 0 1.592-1.913a.8.8 0 0 1 1.23 1.023l-.913 1.097c-.226.272-2.191.132-1.909-.207Z" fill="#FB7199"/><path d="M19.802 16.313c.838 0 1.524.652 1.578 1.477l.003.104v3.805a.32.32 0 0 1-.635.058l-.005-.058v-3.805a.941.941 0 0 0-.85-.937l-.091-.005h-7.661a.941.941 0 0 0-.937.851l-.004.09V21.7a.32.32 0 0 1-.635.058l-.005-.058v-3.805a1.58 1.58 0 0 1 1.477-1.578l.104-.003h7.661Z" fill="#FB7199"/><path d="M14.456 18.43a.48.48 0 0 1 .456.842l-.057.03-1.862.852a.48.48 0 0 1-.456-.842l.057-.03 1.862-.852Zm3.006-.005a.48.48 0 0 0-.436.853l.058.03 2.021.864a.48.48 0 0 0 .436-.853l-.058-.03-2.02-.864ZM16 20.8a.32.32 0 0 1 .32.32.96.96 0 1 1-1.92 0 .32.32 0 0 1 .635-.058l.005.058a.32.32 0 0 0 .635.057l.005-.057a.32.32 0 0 1 .32-.32Z" fill="#FB7199"/><path d="M17.28 20.8a.32.32 0 0 1 .32.32.96.96 0 1 1-1.92 0 .32.32 0 0 1 .634-.058l.006.058a.32.32 0 0 0 .634.057l.006-.057a.32.32 0 0 1 .32-.32Zm8.458-6.693a9.924 9.924 0 0 1-5.186 10.71.32.32 0 0 1-.293-.57 9.284 9.284 0 0 0 4.85-10.018.32.32 0 0 1 .629-.122ZM8.11 14.36a.48.48 0 0 1 .065.956l-.065.004H5.973a.48.48 0 0 1-.065-.956l.065-.004H8.11Z" fill="#FB7199"/><path d="M7.042 13.152a.48.48 0 0 1 .475.415l.005.065v3.008a.48.48 0 0 1-.956.065l-.004-.065v-3.008a.48.48 0 0 1 .48-.48Zm5.444-4.032a.8.8 0 0 1 .082 1.596l-.082.004H9.28a.8.8 0 0 1-.08-1.596l.081-.004h3.206Z" fill="#FB7199"/><path d="M10.883 7.187a.8.8 0 0 1 .796.718l.004.082V12.8a.8.8 0 0 1-1.596.082l-.004-.082V7.987a.8.8 0 0 1 .8-.8Z" fill="#FB7199"/></svg>