<svg xmlns="http://www.w3.org/2000/svg" width="32" height="32" viewBox="0 0 32 32" fill="none"><path d="M26.24 6.24a2.72 2.72 0 0 1 2.717 2.588l.003.132v15.36a2.72 2.72 0 0 1-2.588 2.717l-.132.003H7.68a2.72 2.72 0 0 1-2.717-2.588l-.003-.132v-7.68a.8.8 0 0 1 1.596-.082l.004.082v7.68c0 .587.453 1.07 1.028 1.116l.092.004h18.56a1.12 1.12 0 0 0 1.116-1.028l.004-.092V8.96a1.12 1.12 0 0 0-1.028-1.117l-.092-.003H10.88a.8.8 0 0 1-.082-1.596l.082-.004h15.36Z" fill="#FB7199"/><path d="M10.24 12.64a.8.8 0 0 1 .796.718l.004.082v3.84a.8.8 0 0 1-1.05.76l-.073-.029L7.04 16.74l-2.877 1.27a.8.8 0 0 1-1.12-.654l-.003-.077v-3.84a.8.8 0 0 1 1.596-.082l.004.082v2.61l2.077-.916a.8.8 0 0 1 .557-.034l.09.034 2.076.917v-2.61a.8.8 0 0 1 .718-.796l.082-.004Z" fill="#FB7199"/><path fill-rule="evenodd" clip-rule="evenodd" d="M1.76 9.6a5.28 5.28 0 1 1 10.56 0 5.28 5.28 0 0 1-10.56 0Zm8.96 0a3.68 3.68 0 1 0-7.36 0 3.68 3.68 0 0 0 7.36 0Z" fill="#FB7199"/><path d="M7.04 7.68a.32.32 0 0 1 .315.262L7.36 8v3.52a.32.32 0 0 1-.635.057l-.005-.057v-3.2h-.343a.32.32 0 0 1-.315-.263L6.057 8a.32.32 0 0 1 .262-.315l.058-.005h.663Z" fill="#FB7199"/><path fill-rule="evenodd" clip-rule="evenodd" d="m16.496 12.865 4.267 2.513a1.775 1.775 0 0 1 0 3.084l-4.267 2.513c-1.23.724-2.838-.116-2.838-1.542v-5.026c0-1.426 1.609-2.267 2.838-1.542Zm-.811 6.731 4.266-2.513c.143-.084.143-.242 0-.326l-4.266-2.514c-.192-.112-.426.01-.426.164v5.026c0 .153.234.276.426.163Z" fill="#FB7199"/><path d="M28.16 9.28a.32.32 0 0 1 .057.635l-.057.005h-11.2a.32.32 0 0 1-.058-.635l.058-.005h11.2Zm-4.496 14.08a.32.32 0 0 1 .058.635l-.058.005H5.44a.32.32 0 0 1-.057-.635l.057-.005h18.224Z" fill="#FB7199"/></svg>