<svg xmlns="http://www.w3.org/2000/svg" width="32" height="32" viewBox="0 0 32 32" fill="none"><path fill-rule="evenodd" clip-rule="evenodd" d="M5.76 4.96h20.48a2.08 2.08 0 0 1 2.08 2.08v17.92a2.08 2.08 0 0 1-2.08 2.08H5.76a2.08 2.08 0 0 1-2.08-2.08V7.04a2.08 2.08 0 0 1 2.08-2.08Zm20.48 1.6H5.76a.48.48 0 0 0-.48.48v17.92c0 .265.214.48.48.48h20.48a.48.48 0 0 0 .48-.48V7.04a.48.48 0 0 0-.48-.48Z" fill="#FB7199"/><path fill-rule="evenodd" clip-rule="evenodd" d="M5.517 5.44h20.966c.75 0 1.357.607 1.357 1.357v3.059a.32.32 0 0 1-.32.32H4.48a.32.32 0 0 1-.32-.32v-3.06c0-.749.608-1.356 1.357-1.356Zm21.045.644-.078-.004H5.517a.717.717 0 0 0-.717.717v2.738h22.4V6.797c0-.37-.28-.674-.638-.713Zm-.079 20.476H5.517c-.75 0-1.357-.607-1.357-1.357v-3.059a.32.32 0 0 1 .32-.32h23.04a.32.32 0 0 1 .32.32v3.06c0 .749-.608 1.356-1.357 1.356Zm-21.045-.644.078.004h20.967a.717.717 0 0 0 .717-.717v-2.738H4.8v2.738c0 .37.28.674.638.713Z" fill="#FB7199"/><path fill-rule="evenodd" clip-rule="evenodd" d="M8.145 5.44h5.237a.32.32 0 0 1 .32.32v4.096a.32.32 0 0 1-.32.32H8.145a.32.32 0 0 1-.32-.32V5.76a.32.32 0 0 1 .32-.32Zm4.917 4.095V6.08H8.465v3.456h4.597ZM8.145 21.824h5.237a.32.32 0 0 1 .32.32v4.096a.32.32 0 0 1-.32.32H8.145a.32.32 0 0 1-.32-.32v-4.096a.32.32 0 0 1 .32-.32Zm4.917 4.096v-3.456H8.465v3.456h4.597Z" fill="#FB7199"/><path fill-rule="evenodd" clip-rule="evenodd" d="M13.382 5.44h5.236a.32.32 0 0 1 .32.32v4.096a.32.32 0 0 1-.32.32h-5.236a.32.32 0 0 1-.32-.32V5.76a.32.32 0 0 1 .32-.32Zm4.915 4.095V6.08h-4.596v3.456h4.596Zm-4.915 12.289h5.236a.32.32 0 0 1 .32.32v4.096a.32.32 0 0 1-.32.32h-5.236a.32.32 0 0 1-.32-.32v-4.096a.32.32 0 0 1 .32-.32Zm4.915 4.096v-3.456h-4.596v3.456h4.596Z" fill="#FB7199"/><path fill-rule="evenodd" clip-rule="evenodd" d="M18.618 5.44h5.236a.32.32 0 0 1 .32.32v4.096a.32.32 0 0 1-.32.32h-5.236a.32.32 0 0 1-.32-.32V5.76a.32.32 0 0 1 .32-.32Zm4.916 4.095V6.08h-4.597v3.456h4.597Zm-4.916 12.289h5.236a.32.32 0 0 1 .32.32v4.096a.32.32 0 0 1-.32.32h-5.236a.32.32 0 0 1-.32-.32v-4.096a.32.32 0 0 1 .32-.32Zm4.916 4.096v-3.456h-4.597v3.456h4.597ZM11.035 13.358a.8.8 0 0 0-1.596.082v5.586l.005.081a.8.8 0 0 0 1.595-.081V13.44l-.004-.082Zm4.554 0a.8.8 0 0 0-1.596.082v5.586l.004.081a.8.8 0 0 0 1.596-.081V13.44l-.004-.082Z" fill="#FB7199"/><path d="M14.793 15.2v1.6h-4.554v-1.6h4.554Z" fill="#FB7199"/><path fill-rule="evenodd" clip-rule="evenodd" d="M17.71 12.64h1.76a3.593 3.593 0 0 1 0 7.186h-1.76a.8.8 0 0 1-.8-.8V13.44a.8.8 0 0 1 .8-.8Zm.8 1.6v3.985h.96a1.993 1.993 0 0 0 0-3.985h-.96Z" fill="#FB7199"/><path d="M21.44 8.32a.32.32 0 0 1 .057.635l-.058.005H4.8a.32.32 0 0 1-.057-.635L4.8 8.32h16.64Zm6.08 14.72a.32.32 0 0 1 .057.635l-.057.005H15.04a.32.32 0 0 1-.058-.635l.058-.005h12.48Z" fill="#FB7199"/></svg>