<svg xmlns="http://www.w3.org/2000/svg" viewBox="0 0 24 24" width="24" height="24" fill="#fff" class="bili-video-card__stats--icon"><path d="M12 4.998c-2.518 0-4.717.128-6.27.254a2.172 2.172 0 0 0-2.01 1.98 53.947 53.947 0 0 0-.22 4.766c0 1.827.106 3.498.22 4.766a2.172 2.172 0 0 0 2.01 1.98 78.61 78.61 0 0 0 6.27.254c2.518 0 4.717-.128 6.27-.254a2.172 2.172 0 0 0 2.01-1.98 53.94 53.94 0 0 0 .22-4.766c0-1.828-.106-3.5-.22-4.766a2.172 2.172 0 0 0-2.01-1.98A78.58 78.58 0 0 0 12 4.998zM5.61 3.757A80.076 80.076 0 0 1 12 3.498c2.568 0 4.808.13 6.39.259a3.672 3.672 0 0 1 3.384 3.34c.117 1.3.226 3.017.226 4.901s-.11 3.601-.226 4.9a3.672 3.672 0 0 1-3.383 3.341 80.08 80.08 0 0 1-6.391.259 80.1 80.1 0 0 1-6.39-.259 3.672 3.672 0 0 1-3.384-3.341 55.444 55.444 0 0 1-.226-4.9c0-1.883.11-3.6.226-4.9A3.672 3.672 0 0 1 5.61 3.757z" fill="currentColor"/><path d="M15.875 10.75h-6a.75.75 0 0 1 0-1.5h6a.75.75 0 0 1 0 1.5zm1.5 4h-6a.75.75 0 0 1 0-1.5h6a.75.75 0 0 1 0 1.5zM7.875 10a.75.75 0 0 1-.75.75h-.5a.75.75 0 0 1 0-1.5h.5a.75.75 0 0 1 .75.75zm1.5 4a.75.75 0 0 1-.75.75h-.5a.75.75 0 0 1 0-1.5h.5a.75.75 0 0 1 .75.75z" fill="currentColor"/></svg>