<svg xmlns="http://www.w3.org/2000/svg" class="icon side-icon" viewBox="0 0 1024 1024" width="200" height="200"><path d="M682.65 204.851c35.481 0 64.665 27.136 67.942 61.696l.307 6.605V358.4l81.92-61.44a34.202 34.202 0 0 1 53.248 17.408l1.024 4.762.359 5.12V716.8a34.15 34.15 0 0 1-50.279 30.106l-4.352-2.765-81.92-61.491v68.3c0 33.127-23.552 60.724-54.835 66.97l-6.86 1.024-6.554.256H204.8a68.25 68.25 0 0 1-67.994-61.696l-.307-6.554V273.152c0-35.482 27.136-64.666 61.696-67.994l6.605-.307h477.85zM385.382 389.12a34.15 34.15 0 0 0-34.099 34.15v179.61a34.15 34.15 0 0 0 53.043 28.416l134.759-89.805a34.15 34.15 0 0 0 0-56.832l-134.759-89.805a34.15 34.15 0 0 0-18.944-5.734z"/></svg>